<svg xmlns="http://www.w3.org/2000/svg" width="256" height="256" viewBox="0 0 100 100"><rect width="100" height="100" rx="20" fill="#217171"></rect><path d="M25.31 32.09L47.39 32.09L47.39 36.04L30.19 36.04L30.19 47.94L44.11 47.94L44.11 51.74L30.19 51.74L30.19 63.96L47.39 63.96L47.39 67.91L25.31 67.91L25.31 32.09ZM73.89 35.39L72.71 37.69Q72.49 38.06 72.24 38.25Q71.99 38.44 71.59 38.44L71.59 38.44Q71.16 38.44 70.60 38.01Q70.04 37.59 69.18 37.07Q68.31 36.56 67.10 36.14Q65.89 35.71 64.16 35.71L64.16 35.71Q62.54 35.71 61.29 36.15Q60.04 36.59 59.20 37.34Q58.36 38.09 57.94 39.10Q57.51 40.11 57.51 41.29L57.51 41.29Q57.51 42.79 58.25 43.77Q58.99 44.76 60.20 45.46Q61.41 46.16 62.95 46.67Q64.49 47.19 66.10 47.74Q67.71 48.29 69.25 48.97Q70.79 49.66 72 50.71Q73.21 51.76 73.95 53.29Q74.69 54.81 74.69 57.04L74.69 57.04Q74.69 59.39 73.89 61.45Q73.09 63.51 71.55 65.04Q70.01 66.56 67.78 67.44Q65.54 68.31 62.69 68.31L62.69 68.31Q59.21 68.31 56.35 67.05Q53.49 65.79 51.46 63.64L51.46 63.64L52.86 61.34Q53.06 61.06 53.35 60.87Q53.64 60.69 53.99 60.69L53.99 60.69Q54.51 60.69 55.19 61.25Q55.86 61.81 56.88 62.49Q57.89 63.16 59.33 63.72Q60.76 64.29 62.84 64.29L62.84 64.29Q64.56 64.29 65.91 63.81Q67.26 63.34 68.20 62.47Q69.14 61.61 69.64 60.41Q70.14 59.21 70.14 57.74L70.14 57.74Q70.14 56.11 69.40 55.07Q68.66 54.04 67.46 53.34Q66.26 52.64 64.73 52.15Q63.19 51.66 61.58 51.15Q59.96 50.64 58.43 49.96Q56.89 49.29 55.69 48.21Q54.49 47.14 53.75 45.52Q53.01 43.91 53.01 41.54L53.01 41.54Q53.01 39.64 53.75 37.86Q54.49 36.09 55.89 34.71Q57.29 33.34 59.35 32.51Q61.41 31.69 64.09 31.69L64.09 31.69Q67.09 31.69 69.56 32.64Q72.04 33.59 73.89 35.39L73.89 35.39Z" fill="#000000"></path></svg>