<?xml version="1.0" standalone="no"?>
<!DOCTYPE svg PUBLIC "-//W3C//DTD SVG 20010904//EN"
 "http://www.w3.org/TR/2001/REC-SVG-20010904/DTD/svg10.dtd">
<svg version="1.0" xmlns="http://www.w3.org/2000/svg"
 width="200.000000pt" height="200.000000pt" viewBox="0 0 200.000000 200.000000"
 preserveAspectRatio="xMidYMid meet">

<g transform="translate(0.000000,200.000000) scale(0.100000,-0.100000)"
fill="#000000" stroke="none">
<path d="M1135 1083 c11 -3 26 -12 33 -21 11 -14 12 -14 12 0 0 17 -21 29 -48
27 -13 -1 -12 -3 3 -6z"/>
<path d="M647 1059 c-4 -16 -3 -18 9 -8 7 6 11 15 8 20 -8 13 -11 11 -17 -12z"/>
<path d="M1087 1073 c-17 -16 -4 -43 29 -62 31 -19 35 -25 30 -49 -6 -26 -6
-26 9 -8 8 11 15 23 15 27 0 8 -33 35 -66 55 -16 10 -17 13 -5 28 13 15 2 24
-12 9z"/>
<path d="M560 1055 c-7 -8 -10 -21 -7 -29 4 -9 -2 -17 -13 -21 -33 -11 -39
-76 -7 -74 9 0 9 2 0 6 -16 6 -17 35 -1 51 7 7 26 12 43 13 l30 0 -22 16 c-18
12 -20 19 -12 34 12 23 6 25 -11 4z"/>
<path d="M686 1026 c-9 -14 -16 -32 -16 -41 0 -9 -4 -13 -10 -10 -5 3 -10 2
-10 -4 0 -6 -12 -17 -27 -25 -16 -8 -23 -15 -17 -16 5 0 19 6 29 14 17 12 21
12 33 -3 7 -9 10 -10 7 -3 -4 8 2 27 14 43 12 16 16 29 10 29 -8 0 -8 4 1 15
7 9 11 18 8 21 -3 2 -13 -7 -22 -20z"/>
<path d="M939 1003 c-11 -25 -18 -51 -16 -57 2 -6 12 11 22 37 10 26 22 47 26
47 5 0 9 5 9 10 0 26 -23 5 -41 -37z"/>
<path d="M1442 1025 c-6 -14 -18 -25 -25 -25 -22 0 -50 -37 -43 -56 5 -12 9
-14 20 -5 7 6 15 9 17 7 2 -1 16 21 30 51 14 29 23 53 19 53 -4 0 -12 -11 -18
-25z m-32 -54 c-10 -21 -30 -37 -30 -26 0 14 21 45 31 45 6 0 6 -7 -1 -19z"/>
<path d="M764 983 c1 -39 2 -40 12 -20 7 12 9 24 5 27 -5 3 -10 12 -13 20 -3
8 -5 -4 -4 -27z"/>
<path d="M1011 988 c-10 -25 6 -59 30 -66 8 -2 6 2 -5 10 -14 11 -17 23 -14
46 5 37 1 41 -11 10z"/>
<path d="M710 981 c-5 -11 -10 -26 -10 -33 1 -7 8 0 16 15 8 15 19 25 24 22 6
-4 10 -1 10 4 0 18 -29 12 -40 -8z"/>
<path d="M799 973 c-22 -45 -22 -46 -10 -38 13 7 34 55 28 61 -2 2 -10 -8 -18
-23z"/>
<path d="M864 974 c-14 -20 -15 -27 -4 -37 8 -8 11 -8 7 -1 -4 7 3 23 14 38
11 14 16 26 10 26 -6 0 -18 -11 -27 -26z"/>
<path d="M1190 979 c-6 -11 -9 -25 -6 -32 2 -7 5 -5 5 5 1 9 11 24 23 32 18
13 19 16 6 16 -10 0 -22 -9 -28 -21z"/>
<path d="M1245 971 c-8 -17 -12 -31 -7 -31 10 0 35 50 28 57 -2 3 -12 -9 -21
-26z"/>
<path d="M1283 978 c-21 -48 14 -67 37 -20 21 42 21 42 17 42 -3 0 -15 -15
-27 -32 l-21 -33 6 33 c8 37 2 42 -12 10z"/>
<path d="M1461 970 c-2 -27 -4 -31 -10 -16 -6 15 -10 16 -16 7 -9 -15 16 -34
28 -22 5 5 7 21 4 37 -4 27 -4 27 -6 -6z"/>
<path d="M826 968 c-3 -13 0 -27 7 -33 6 -5 9 -6 5 -1 -4 4 -3 19 2 32 5 13 6
24 1 24 -5 0 -11 -10 -15 -22z"/>
<path d="M1344 965 c-9 -37 0 -40 13 -5 6 17 7 30 2 30 -5 0 -11 -11 -15 -25z"/>
<path d="M897 973 c-4 -3 -7 -13 -7 -22 1 -13 3 -13 11 2 11 19 8 33 -4 20z"/>
<path d="M1213 963 c-15 -5 -17 -23 -4 -23 5 0 11 7 15 15 3 8 4 15 3 14 -1 0
-8 -3 -14 -6z"/>
<path d="M1110 930 c-9 -6 -10 -10 -3 -10 6 0 15 5 18 10 8 12 4 12 -15 0z"/>
</g>
</svg>
